<?xml version="1.0" encoding="UTF-8"?>
<svg xmlns="http://www.w3.org/2000/svg" xmlns:xlink="http://www.w3.org/1999/xlink" width="96pt" height="96pt" viewBox="0 0 96 96" version="1.1">
<g id="surface1">
<path style=" stroke:none;fill-rule:nonzero;fill:#8672FF;fill-opacity:1;" d="M 48 8 C 25.9375 8 8 25.9375 8 48 C 8 70.0625 25.9375 88 48 88 C 70.0625 88 88 70.0625 88 48 C 88 25.9375 70.0625 8 48 8 Z M 58.34375 48 L 52 41.65625 L 52 64 C 52 66.203125 50.203125 68 48 68 C 45.796875 68 44 66.203125 44 64 L 44 41.65625 L 37.65625 48 C 36.09375 49.5625 33.5625 49.5625 32 48 C 30.4375 46.4375 30.4375 43.90625 32 42.34375 L 45.171875 29.171875 C 46.734375 27.609375 49.265625 27.609375 50.828125 29.171875 L 64 42.34375 C 65.5625 43.90625 65.5625 46.4375 64 48 C 62.4375 49.5625 59.90625 49.5625 58.34375 48 Z "/>
</g>
</svg>
