<?xml version="1.0" encoding="UTF-8"?>
<svg xmlns="http://www.w3.org/2000/svg" xmlns:xlink="http://www.w3.org/1999/xlink" width="480pt" height="480pt" viewBox="0 0 480 480" version="1.1">
<g id="surface1">
<path style=" stroke:none;fill-rule:nonzero;fill:#FCFCFC;fill-opacity:1;" d="M 236.84375 47.367188 C 132.175781 47.367188 47.367188 132.175781 47.367188 236.84375 C 47.367188 341.507813 132.175781 426.316406 236.84375 426.316406 C 341.507813 426.316406 426.316406 341.507813 426.316406 236.84375 C 426.316406 132.175781 341.507813 47.367188 236.84375 47.367188 Z M 315.789063 252.632813 L 252.632813 252.632813 L 252.632813 315.789063 C 252.632813 324.546875 245.539063 331.578125 236.84375 331.578125 C 228.144531 331.578125 221.050781 324.546875 221.050781 315.789063 L 221.050781 252.632813 L 157.894531 252.632813 C 149.199219 252.632813 142.105469 245.601563 142.105469 236.84375 C 142.105469 228.082031 149.199219 221.050781 157.894531 221.050781 L 221.050781 221.050781 L 221.050781 157.894531 C 221.050781 149.136719 228.144531 142.105469 236.84375 142.105469 C 245.539063 142.105469 252.632813 149.136719 252.632813 157.894531 L 252.632813 221.050781 L 315.789063 221.050781 C 324.484375 221.050781 331.578125 228.082031 331.578125 236.84375 C 331.578125 245.601563 324.484375 252.632813 315.789063 252.632813 Z "/>
</g>
</svg>
